<?xml version="1.0" standalone="no"?>
<!DOCTYPE svg PUBLIC "-//W3C//DTD SVG 20010904//EN"
 "http://www.w3.org/TR/2001/REC-SVG-20010904/DTD/svg10.dtd">
<svg version="1.0" xmlns="http://www.w3.org/2000/svg"
 viewBox="80 263 547 431"
 preserveAspectRatio="xMidYMid meet">
<metadata>
Created by potrace 1.16, written by Peter Selinger 2001-2019
</metadata>
<g transform="translate(0.000000,1024.000000) scale(0.100000,-0.100000)"
fill="#000000" stroke="none">
<path d="M3403 7415 c-363 -554 -529 -806 -1956 -2953 -356 -535 -647 -975
-647 -977 0 -3 528 -4 1173 -3 l1172 3 3 78 3 77 -1027 0 c-817 0 -1025 3
-1021 13 3 6 552 832 1220 1835 l1215 1823 550 -823 c302 -453 852 -1275 1221
-1828 l672 -1005 -658 -5 -658 -5 -150 -53 c-82 -30 -177 -63 -210 -74 -33
-11 -64 -25 -69 -29 -6 -5 435 -9 1017 -9 565 0 1027 3 1027 8 0 7 -1090 1642
-2263 3395 l-486 727 -128 -195z"/>
<path d="M3519 6909 c-23 -44 -1778 -2673 -1960 -2935 l-77 -111 62 -7 c79 -7
1560 -8 1580 0 14 5 16 31 16 175 l0 169 -504 2 -504 3 148 220 c82 121 395
588 697 1039 l548 818 3 -351 2 -351 455 0 455 0 -43 65 c-23 35 -119 178
-213 317 -93 139 -275 411 -404 603 -128 193 -236 354 -241 359 -4 4 -13 -2
-20 -15z"/>
<path d="M3100 5165 l0 -185 105 0 105 0 0 -846 c0 -741 2 -845 15 -840 8 3
103 37 212 76 109 39 464 168 788 286 l591 214 327 0 c180 0 327 3 327 6 0 12
-390 579 -435 632 -39 46 -133 107 -198 127 -29 9 -58 18 -65 21 -9 2 -4 16
15 45 22 33 28 56 31 110 5 87 -13 141 -75 226 -26 36 -75 104 -108 152 -65
92 -115 133 -182 150 -28 7 -280 11 -747 11 l-706 0 0 -185z m1368 -198 c48
-26 77 -93 63 -145 -12 -43 -42 -75 -84 -91 -18 -7 -160 -11 -396 -11 l-369 0
-1 100 c-1 55 1 116 5 135 l6 36 372 -3 c337 -3 374 -5 404 -21z m239 -548
c77 -29 149 -166 96 -182 -22 -6 -503 -180 -854 -309 l-257 -94 -7 74 c-4 41
-4 175 0 298 l8 224 493 0 c325 0 502 -4 521 -11z"/>
</g>
</svg>
